# Blender v2.74 (sub 0) OBJ File: ''
# www.blender.org
mtllib test1obj.mtl
o Plane
v 1.499941 -0.406187 -0.848501
v 5.499872 -0.406786 -0.871965
v 1.476492 -0.330641 -4.847719
v 5.476423 -0.331240 -4.871182
vn 0.000300 0.999800 0.018900
usemtl Material.002
s off
f 1//1 2//1 4//1 3//1
o Cube.001
v -0.424743 -0.528294 4.494805
v -0.424743 1.471706 4.494805
v -0.424743 -0.528294 2.494806
v -0.424743 1.471706 2.494806
v 1.575257 -0.528294 4.494805
v 1.575257 1.471706 4.494805
v 1.575257 -0.528294 2.494806
v 1.575257 1.471706 2.494806
vn -1.000000 0.000000 0.000000
vn 0.000000 0.000000 -1.000000
vn 1.000000 0.000000 0.000000
vn 0.000000 0.000000 1.000000
vn 0.000000 -1.000000 0.000000
vn 0.000000 1.000000 0.000000
usemtl Material.001
s off
f 6//2 8//2 7//2 5//2
f 8//3 12//3 11//3 7//3
f 12//4 10//4 9//4 11//4
f 10//5 6//5 5//5 9//5
f 5//6 7//6 11//6 9//6
f 10//7 12//7 8//7 6//7
o Cube
v -4.270006 -1.000000 -1.000000
v -4.270006 -1.000000 1.000000
v -6.270006 -1.000000 1.000000
v -6.270005 -1.000000 -1.000000
v -4.270005 1.000000 -0.999999
v -4.270006 1.000000 1.000001
v -6.270006 1.000000 1.000000
v -6.270006 1.000000 -1.000000
vn 0.000000 -1.000000 0.000000
vn 0.000000 1.000000 0.000000
vn 1.000000 -0.000000 0.000000
vn -0.000000 -0.000000 1.000000
vn -1.000000 -0.000000 -0.000000
vn 0.000000 0.000000 -1.000000
usemtl Material
s off
f 13//8 14//8 15//8 16//8
f 17//9 20//9 19//9 18//9
f 13//10 17//10 18//10 14//10
f 14//11 18//11 19//11 15//11
f 15//12 19//12 20//12 16//12
f 17//13 13//13 16//13 20//13
