# Blender v2.74 (sub 0) OBJ File: ''
# www.blender.org
mtllib test4.mtl
o Plane.004_Plane.005
v 22.075762 47.284660 17.688976
v 22.075758 -2.715342 17.688976
v 22.075762 47.284660 -32.311024
v 22.075758 -2.715342 -32.311024
vn 1.000000 -0.000000 0.000000
usemtl Material.005
s off
f 1//1 2//1 4//1 3//1
o Plane.003_Plane.004
v -23.886717 47.016468 17.861599
v -23.886721 -2.983532 17.861599
v -23.886717 47.016468 -32.138401
v -23.886721 -2.983532 -32.138401
vn 1.000000 -0.000000 0.000000
usemtl Material.004
s off
f 5//2 6//2 8//2 7//2
o Plane.002_Plane.003
v -26.140259 -4.591976 -30.798643
v 23.859741 -4.591976 -30.798643
v -26.140259 45.408024 -30.798639
v 23.859741 45.408024 -30.798639
vn 0.000000 -0.000000 1.000000
usemtl Material.003
s off
f 9//3 10//3 12//3 11//3
o Plane.001_Plane.002
v -26.252962 -2.926184 16.486462
v 23.747038 -2.926184 16.486462
v -26.252962 47.073814 16.486465
v 23.747038 47.073814 16.486465
vn 0.000000 -0.000000 1.000000
usemtl Material.002
s off
f 13//4 14//4 16//4 15//4
o Plane
v -26.417479 -1.982436 17.843252
v 23.582521 -1.982436 17.843252
v -26.417479 -1.982436 -32.156746
v 23.582521 -1.982436 -32.156746
v 12.210454 -1.841683 -0.619112
v 14.210456 -1.841683 -0.619112
v 12.210454 -1.841683 -2.619112
v 14.210456 -1.841683 -2.619112
vn 0.000000 1.000000 0.000000
usemtl Material.001
s off
f 17//5 18//5 20//5 19//5
f 21//5 22//5 24//5 23//5
o Cube
v -4.850658 1.936382 -3.000000
v -4.850658 1.936382 3.000000
v -10.850658 1.936382 3.000000
v -10.850657 1.936382 -3.000001
v -4.850657 7.936382 -2.999998
v -4.850660 7.936382 3.000002
v -10.850658 7.936382 2.999999
v -10.850657 7.936382 -3.000000
vn 0.000000 -1.000000 0.000000
vn 0.000000 1.000000 0.000000
vn 1.000000 0.000000 0.000000
vn -0.000000 -0.000000 1.000000
vn -1.000000 -0.000000 -0.000000
vn 0.000000 0.000000 -1.000000
usemtl Material
s off
f 25//6 26//6 27//6 28//6
f 29//7 32//7 31//7 30//7
f 25//8 29//8 30//8 26//8
f 26//9 30//9 31//9 27//9
f 27//10 31//10 32//10 28//10
f 29//11 25//11 28//11 32//11
